<?xml version="1.0" encoding="UTF-8"?>
<svg version="1.1" xmlns="http://www.w3.org/2000/svg" width="500" height="500">
<path d="M0 0 C1.32 0 2.64 0 4 0 C4 0.66 4 1.32 4 2 C4.5775 2.103125 5.155 2.20625 5.75 2.3125 C8.55270594 3.16888237 9.93285893 3.88631368 12 6 C12.42646001 8.70428288 12.6048041 11.0212552 12.609375 13.73046875 C12.62591125 14.48088943 12.64244751 15.23131012 12.65948486 16.00447083 C12.70803052 18.39889656 12.72934885 20.79268702 12.75 23.1875 C12.77815443 24.81188103 12.80808112 26.43623239 12.83984375 28.06054688 C12.91379039 32.04031227 12.96332417 36.01972367 13 40 C14.4540625 40.680625 14.4540625 40.680625 15.9375 41.375 C19 43 19 43 20 45 C20.08510205 46.9593604 20.10717656 48.92162794 20.09765625 50.8828125 C20.09282227 52.63271484 20.09282227 52.63271484 20.08789062 54.41796875 C20.07532227 56.25294922 20.07532227 56.25294922 20.0625 58.125 C20.05798828 59.35605469 20.05347656 60.58710938 20.04882812 61.85546875 C20.0370133 64.90369392 20.02054028 67.95182314 20 71 C21.41764994 70.06398754 22.83407568 69.1261208 24.25 68.1875 C25.03890625 67.66542969 25.8278125 67.14335937 26.640625 66.60546875 C31.13752263 63.95826961 31.13752263 63.95826961 33.609375 59.73828125 C33.65578125 58.93777344 33.7021875 58.13726562 33.75 57.3125 C33.83507812 56.10013672 33.83507812 56.10013672 33.921875 54.86328125 C33.94765625 54.24839844 33.9734375 53.63351563 34 53 C38.36574794 53.59018444 41.47717081 55.2026098 45.25 57.4375 C46.30703125 58.05496094 47.3640625 58.67242187 48.453125 59.30859375 C51 61 51 61 52 63 C52.13415472 65.6723621 52.04318541 68.32250488 52 71 C50.515 71.495 50.515 71.495 49 72 C49 72.66 49 73.32 49 74 C46.04502455 75.9863164 43.03946995 77.82244683 39.9765625 79.63476562 C38.26948217 80.68165877 36.62853901 81.83468063 35 83 C35 83.99 35 84.98 35 86 C35.53625 86.2475 36.0725 86.495 36.625 86.75 C39.5823982 88.30652537 42.29724051 90.03435673 45 92 C45 92.66 45 93.32 45 94 C45.66 94 46.32 94 47 94 C47 94.66 47 95.32 47 96 C48.65 96.66 50.3 97.32 52 98 C52 106.58 52 115.16 52 124 C46.06 124 40.12 124 34 124 C34.020625 121.339375 34.04125 118.67875 34.0625 115.9375 C33.94523339 111.33630574 33.84839799 108.07250312 30.9296875 104.3828125 C28.49555595 102.5344371 28.49555595 102.5344371 25.93359375 101.12890625 C25.29550781 100.75636719 24.65742188 100.38382812 24 100 C24 99.34 24 98.68 24 98 C22.515 97.505 22.515 97.505 21 97 C20.67 105.91 20.34 114.82 20 124 C14.06 124 8.12 124 2 124 C2 86.71 2 49.42 2 11 C1.34 11 0.68 11 0 11 C0.04189453 12.30670654 0.08378906 13.61341309 0.12695312 14.9597168 C0.27190106 19.81408749 0.3636448 24.6682678 0.43945312 29.52416992 C0.47965263 31.62443212 0.53422399 33.72447087 0.60351562 35.82397461 C0.70072891 38.84544931 0.74595912 41.86396423 0.78125 44.88671875 C0.82254028 45.82335861 0.86383057 46.75999847 0.90637207 47.72502136 C0.90819249 50.37780882 0.8242852 52.47632615 0 55 C-2.39348619 57.32973825 -4.98320137 58.62589011 -8 60 C-9.19457304 60.68706504 -10.38248862 61.38587239 -11.5625 62.09765625 C-12.696875 62.74605469 -13.83125 63.39445312 -15 64.0625 C-15.60158936 64.40901611 -16.20317871 64.75553223 -16.82299805 65.11254883 C-20.0914174 66.97927427 -23.37310344 68.66301071 -26.8125 70.1875 C-27.864375 70.785625 -28.91625 71.38375 -30 72 C-30.74647463 74.55326025 -30.74647463 74.55326025 -31 77 C-29.80503906 76.52949219 -28.61007813 76.05898438 -27.37890625 75.57421875 C-25.77348405 74.94519368 -24.16801265 74.31629416 -22.5625 73.6875 C-21.77939453 73.37876953 -20.99628906 73.07003906 -20.18945312 72.75195312 C-16.19994339 71.19226825 -12.19732913 69.67976288 -8.15234375 68.26953125 C-7.44972412 68.02436768 -6.74710449 67.7792041 -6.02319336 67.52661133 C-4 67 -4 67 0 67 C0 72.94 0 78.88 0 85 C-1.99160156 85.68835938 -1.99160156 85.68835938 -4.0234375 86.390625 C-12.75745192 89.42111337 -21.46295637 92.44289849 -30 96 C-30.33 99.63 -30.66 103.26 -31 107 C-20.77 107 -10.54 107 0 107 C0 112.61 0 118.22 0 124 C-16.17 124 -32.34 124 -49 124 C-49 103.21 -49 82.42 -49 61 C-31.2 50.9875 -31.2 50.9875 -24.4765625 47.3515625 C-21.21804919 45.57325713 -17.99534447 43.73330839 -14.77734375 41.8828125 C-13 41 -13 41 -11 41 C-10.67 30.77 -10.34 20.54 -10 10 C-6.535 9.505 -6.535 9.505 -3 9 C-3 7.68 -3 6.36 -3 5 C-1.75 2.25 -1.75 2.25 0 0 Z " fill="#A4A6A8" transform="translate(250,182)"/>
<path d="M0 0 C0.99 0 1.98 0 3 0 C6.33984984 3.71094427 6.61170216 7.62464403 6.50390625 12.41796875 C5.64392881 16.82451981 3.01334108 19.78935683 0 23 C-4.96342307 21.40013936 -8.70198762 18.47460168 -12.8125 15.375 C-13.50537109 14.859375 -14.19824219 14.34375 -14.91210938 13.8125 C-16.61173663 12.54657074 -18.30637435 11.27394735 -20 10 C-18.87548273 7.0280615 -17.77706209 4.66559313 -16 2 C-14.55989519 2.25662245 -13.1229313 2.53090821 -11.6875 2.8125 C-10.88699219 2.96332031 -10.08648437 3.11414063 -9.26171875 3.26953125 C-6.7241138 4.08910314 -5.79440793 5.08596487 -4 7 C-0.89992799 8.20049407 -0.89992799 8.20049407 2 9 C1.484375 8.071875 0.96875 7.14375 0.4375 6.1875 C-1 3 -1 3 0 0 Z " fill="#ADB3B6" transform="translate(244,167)"/>
<path d="M0 0 C0 1.32 0 2.64 0 4 C-0.75095947 4.20157715 -1.50191895 4.4031543 -2.27563477 4.61083984 C-5.70474465 5.53165118 -9.133624 6.45331813 -12.5625 7.375 C-13.74392578 7.69210938 -14.92535156 8.00921875 -16.14257812 8.3359375 C-17.86831055 8.8 -17.86831055 8.8 -19.62890625 9.2734375 C-20.74080322 9.57233887 -21.8527002 9.87124023 -22.99829102 10.17919922 C-25.3838056 10.83150504 -27.7554577 11.5116206 -30.125 12.21875 C-33.19680419 13.0534794 -35.83143773 13.15456401 -39 13 C-38.67 11.68 -38.34 10.36 -38 9 C-36.95779297 8.77957031 -36.95779297 8.77957031 -35.89453125 8.5546875 C-27.53796051 6.71179357 -19.35835831 4.43432393 -11.16137695 1.98193359 C-10.292146 1.72621582 -9.42291504 1.47049805 -8.52734375 1.20703125 C-7.36319946 0.85862183 -7.36319946 0.85862183 -6.17553711 0.50317383 C-4 0 -4 0 0 0 Z " fill="#5A7E99" transform="translate(204,183)"/>
<path d="M0 0 C2.375 0.6875 2.375 0.6875 5 2 C6.3125 4.625 6.3125 4.625 7 7 C7.66 7 8.32 7 9 7 C10.18359375 8.42578125 10.18359375 8.42578125 11.4375 10.3125 C12.7529022 12.27941802 13.88924033 13.90122843 15.66015625 15.48046875 C17 17 17 17 17 21 C11.46867425 20.04632315 9.34045802 16.22469691 6 12 C5.08374538 10.93714464 4.16707429 9.87464819 3.25 8.8125 C1 6 1 6 1 4 C0.34 4 -0.32 4 -1 4 C-0.67 2.68 -0.34 1.36 0 0 Z " fill="#547792" transform="translate(217,136)"/>
<path d="M0 0 C1.48206495 0.254496 2.96068615 0.52911762 4.4375 0.8125 C5.67306641 1.03873047 5.67306641 1.03873047 6.93359375 1.26953125 C7.61550781 1.51058594 8.29742187 1.75164062 9 2 C9.33 2.99 9.66 3.98 10 5 C9.34 5 8.68 5 8 5 C8 5.66 8 6.32 8 7 C7.34 7 6.68 7 6 7 C6.185625 7.598125 6.37125 8.19625 6.5625 8.8125 C7 11 7 11 6 14 C2.00499382 12.6302836 -0.80009492 10.74277578 -4 8 C-2.87548273 5.0280615 -1.77706209 2.66559313 0 0 Z " fill="#B5B9BC" transform="translate(228,169)"/>
<path d="M0 0 C7.71589817 -0.1567564 15.31516461 0.32546899 23 1 C22.67 2.32 22.34 3.64 22 5 C18.54168414 5.02894547 15.08339928 5.04678 11.625 5.0625 C10.14773437 5.07506836 10.14773437 5.07506836 8.640625 5.08789062 C7.22910156 5.09272461 7.22910156 5.09272461 5.7890625 5.09765625 C4.48509521 5.10551147 4.48509521 5.10551147 3.15478516 5.11352539 C1 5 1 5 -1 4 C-0.67 2.68 -0.34 1.36 0 0 Z " fill="#1A4A6C" transform="translate(196,171)"/>
<path d="M0 0 C3.5875213 1.33250791 6.8364623 2.830717 10 5 C10 5.66 10 6.32 10 7 C11.32 7.66 12.64 8.32 14 9 C14 9.99 14 10.98 14 12 C8.13676119 11.31822804 4.70159082 9.79114823 0.625 5.5 C-0.179375 4.2625 -0.179375 4.2625 -1 3 C-0.67 2.01 -0.34 1.02 0 0 Z " fill="#7492A6" transform="translate(220,155)"/>
<path d="M0 0 C5.41798672 0.69165788 10.6822785 1.75799248 16 3 C16 4.32 16 5.64 16 7 C9.80481527 6.58411954 4.73310689 5.39748106 -1 3 C-0.67 2.01 -0.34 1.02 0 0 Z " fill="#436A8A" transform="translate(174,151)"/>
<path d="M0 0 C-0.33 0.99 -0.66 1.98 -1 3 C-2.32303717 3.3721042 -3.65737935 3.70630173 -5 4 C-5.33 4.66 -5.66 5.32 -6 6 C-8.34613181 7.53712084 -9.44563145 8.09239476 -12.25 7.625 C-12.8275 7.41875 -13.405 7.2125 -14 7 C-14 6.01 -14 5.02 -14 4 C-12.42466914 3.13116294 -10.83935491 2.28040932 -9.25 1.4375 C-8.36828125 0.96183594 -7.4865625 0.48617187 -6.578125 -0.00390625 C-3.79298812 -1.07998186 -2.73019786 -1.06528748 0 0 Z " fill="#60819A" transform="translate(209,190)"/>
<path d="M0 0 C-0.33 0.66 -0.66 1.32 -1 2 C-1.99 2 -2.98 2 -4 2 C-4 2.66 -4 3.32 -4 4 C-8.53701494 5.45184478 -12.18061476 6.23509196 -17 6 C-16.67 4.68 -16.34 3.36 -16 2 C-10.42932723 0.40837921 -5.78898419 -0.20674944 0 0 Z " fill="#456988" transform="translate(182,190)"/>
<path d="M0 0 C4.571279 0.54855348 8.67435795 1.41744803 13 3 C13 4.32 13 5.64 13 7 C8.16371695 6.00956295 3.52381127 5.04301154 -1 3 C-0.67 2.01 -0.34 1.02 0 0 Z " fill="#4F708B" transform="translate(209,162)"/>
<path d="M0 0 C1.32 0.33 2.64 0.66 4 1 C4 1.99 4 2.98 4 4 C2.1015625 5.60546875 2.1015625 5.60546875 -0.375 7.1875 C-1.18710938 7.71730469 -1.99921875 8.24710938 -2.8359375 8.79296875 C-5 10 -5 10 -7 10 C-7.3125 7.6875 -7.3125 7.6875 -7 5 C-4.6167054 3.18116991 -3.04181663 2 0 2 C0 1.34 0 0.68 0 0 Z " fill="#537490" transform="translate(177,205)"/>
<path d="M0 0 C3.3 0 6.6 0 10 0 C10 0.33 10 0.66 10 1 C7.36 1.33 4.72 1.66 2 2 C8.6 2.66 15.2 3.32 22 4 C22 4.33 22 4.66 22 5 C18.54168414 5.02894547 15.08339928 5.04678 11.625 5.0625 C10.14773437 5.07506836 10.14773437 5.07506836 8.640625 5.08789062 C7.22910156 5.09272461 7.22910156 5.09272461 5.7890625 5.09765625 C4.48509521 5.10551147 4.48509521 5.10551147 3.15478516 5.11352539 C1 5 1 5 -1 4 C-0.67 2.68 -0.34 1.36 0 0 Z " fill="#A6BDD0" transform="translate(196,171)"/>
<path d="M0 0 C3.99500618 1.3697164 6.80009492 3.25722422 10 6 C9.67 6.99 9.34 7.98 9 9 C5.00544473 8.38545304 2.25533664 6.29353263 -1 4 C-0.67 2.68 -0.34 1.36 0 0 Z " fill="#758DA5" transform="translate(197,139)"/>
<path d="M0 0 C2.125 0.9375 2.125 0.9375 4 2 C-0.30769231 7.78461538 -0.30769231 7.78461538 -3.8125 8.875 C-4.8953125 8.936875 -4.8953125 8.936875 -6 9 C-5.67 7.35 -5.34 5.7 -5 4 C-4.01 3.67 -3.02 3.34 -2 3 C-2 2.34 -2 1.68 -2 1 C-1.34 0.67 -0.68 0.34 0 0 Z " fill="#537895" transform="translate(190,208)"/>
<path d="M0 0 C1.65 0.33 3.3 0.66 5 1 C5.33 3.31 5.66 5.62 6 8 C5.01 8.33 4.02 8.66 3 9 C0.9375 7.3125 0.9375 7.3125 -1 5 C-0.75 2.25 -0.75 2.25 0 0 Z " fill="#51709A" transform="translate(239,156)"/>
<path d="M0 0 C3.35111834 2.23407889 4.81553956 3.26215824 5.8125 7.25 C5.874375 8.1575 5.93625 9.065 6 10 C0.87751114 9.11681227 -1.06644476 6.0511001 -4 2 C-2.68 2 -1.36 2 0 2 C0 1.34 0 0.68 0 0 Z " fill="#6F8DA5" transform="translate(228,147)"/>
<path d="M0 0 C1.32 0 2.64 0 4 0 C4 0.66 4 1.32 4 2 C4.61875 2.12375 5.2375 2.2475 5.875 2.375 C8 3 8 3 10 5 C9.38125 4.79375 8.7625 4.5875 8.125 4.375 C7.42375 4.25125 6.7225 4.1275 6 4 C5.34 4.66 4.68 5.32 4 6 C4 5.34 4 4.68 4 4 C2.05000871 4.19471111 2.05000871 4.19471111 0 5 C-1.28436734 6.9837767 -1.28436734 6.9837767 -2 9 C-2.66 8.67 -3.32 8.34 -4 8 C-2.87548273 5.0280615 -1.77706209 2.66559313 0 0 Z " fill="#CFD0D1" transform="translate(250,182)"/>
<path d="M0 0 C2.64 0.33 5.28 0.66 8 1 C8.33 2.32 8.66 3.64 9 5 C5.23375329 6.25541557 3.62811066 5.37061958 0 4 C0 2.68 0 1.36 0 0 Z " fill="#7393A5" transform="translate(195,157)"/>
<path d="M0 0 C2.97 0 5.94 0 9 0 C9 1.32 9 2.64 9 4 C6.03 4 3.06 4 0 4 C0 2.68 0 1.36 0 0 Z " fill="#57778D" transform="translate(153,172)"/>
<path d="M0 0 C0 1.32 0 2.64 0 4 C-2.64 4.33 -5.28 4.66 -8 5 C-7.625 3.0625 -7.625 3.0625 -7 1 C-4.53721199 -0.231394 -2.7204945 -0.07159196 0 0 Z " fill="#5D8095" transform="translate(155,197)"/>
<path d="M0 0 C3.3 0.33 6.6 0.66 10 1 C10 2.32 10 3.64 10 5 C7.03 4.67 4.06 4.34 1 4 C2.32 3.67 3.64 3.34 5 3 C5 2.34 5 1.68 5 1 C3.35 1 1.7 1 0 1 C0 0.67 0 0.34 0 0 Z " fill="#6887A2" transform="translate(180,153)"/>
<path d="M0 0 C0.99 0 1.98 0 3 0 C3.66 2.97 4.32 5.94 5 9 C4.34 8.67 3.68 8.34 3 8 C3 7.34 3 6.68 3 6 C1.68 5.34 0.36 4.68 -1 4 C-0.67 2.68 -0.34 1.36 0 0 Z " fill="#4E708B" transform="translate(244,167)"/>
<path d="M0 0 C0 1.32 0 2.64 0 4 C-4.75 4.125 -4.75 4.125 -7 3 C-8.32860925 2.64830932 -9.66158328 2.31229724 -11 2 C-7.12315913 0.80712589 -4.08378077 0 0 0 Z " fill="#6182A3" transform="translate(204,183)"/>
<path d="M0 0 C1.98 0 3.96 0 6 0 C6 0.99 6 1.98 6 3 C3.69 3.33 1.38 3.66 -1 4 C-0.67 2.68 -0.34 1.36 0 0 Z " fill="#607E93" transform="translate(212,180)"/>
<path d="M0 0 C2.0625 0.4375 2.0625 0.4375 4 1 C4 1.99 4 2.98 4 4 C4.66 4 5.32 4 6 4 C6 4.66 6 5.32 6 6 C3.625 5.75 3.625 5.75 1 5 C-0.3125 2.9375 -0.3125 2.9375 -1 1 C-0.67 0.67 -0.34 0.34 0 0 Z " fill="#4E6F89" transform="translate(220,155)"/>
<path d="M0 0 C0.33 0 0.66 0 1 0 C1 2.64 1 5.28 1 8 C0.01 8.33 -0.98 8.66 -2 9 C-2 9.66 -2 10.32 -2 11 C-2.66 10.67 -3.32 10.34 -4 10 C-4 9.01 -4 8.02 -4 7 C-3.34 6.67 -2.68 6.34 -2 6 C-1.27306096 4.02111039 -0.60183749 2.02045442 0 0 Z " fill="#C4C5C5" transform="translate(301,245)"/>
<path d="M0 0 C1.32 0 2.64 0 4 0 C4.33 0.99 4.66 1.98 5 3 C2 5 2 5 -0.1875 4.625 C-0.785625 4.41875 -1.38375 4.2125 -2 4 C-1.34 2.68 -0.68 1.36 0 0 Z " fill="#7992A6" transform="translate(205,197)"/>
<path d="M0 0 C-0.33 0.99 -0.66 1.98 -1 3 C-2.875 3.875 -2.875 3.875 -5 4 C-6.75 2.5625 -6.75 2.5625 -8 1 C-4.93251126 -0.86240388 -3.40254489 -1.2151946 0 0 Z " fill="#7594AA" transform="translate(209,190)"/>
<path d="M0 0 C2.0625 0.4375 2.0625 0.4375 4 1 C4.33 2.32 4.66 3.64 5 5 C3.35 5 1.7 5 0 5 C-0.5625 3.0625 -0.5625 3.0625 -1 1 C-0.67 0.67 -0.34 0.34 0 0 Z " fill="#587F94" transform="translate(213,150)"/>
<path d="M0 0 C1.32 0 2.64 0 4 0 C4 1.65 4 3.3 4 5 C2.35 5 0.7 5 -1 5 C-0.67 3.35 -0.34 1.7 0 0 Z " fill="#798D9D" transform="translate(189,135)"/>
<path d="M0 0 C1.32 0.33 2.64 0.66 4 1 C4 1.99 4 2.98 4 4 C2.35 4.66 0.7 5.32 -1 6 C-1.33 4.68 -1.66 3.36 -2 2 C-1.34 2 -0.68 2 0 2 C0 1.34 0 0.68 0 0 Z " fill="#7090AA" transform="translate(177,205)"/>
<path d="M0 0 C1.9375 0.375 1.9375 0.375 4 1 C4.33 1.66 4.66 2.32 5 3 C4.67 3.66 4.34 4.32 4 5 C2.35 4.67 0.7 4.34 -1 4 C-0.67 2.68 -0.34 1.36 0 0 Z " fill="#6694A5" transform="translate(236,165)"/>
<path d="M0 0 C0.66 0.33 1.32 0.66 2 1 C1.34 1.66 0.68 2.32 0 3 C-0.99 3 -1.98 3 -3 3 C-3 3.66 -3 4.32 -3 5 C-4.98 5.99 -4.98 5.99 -7 7 C-7.66 6.34 -8.32 5.68 -9 5 C-7.54735962 4.1361871 -6.0876837 3.28419546 -4.625 2.4375 C-3.40683594 1.72400391 -3.40683594 1.72400391 -2.1640625 0.99609375 C-1.44992188 0.66738281 -0.73578125 0.33867187 0 0 Z " fill="#BFC2C3" transform="translate(237,223)"/>
<path d="M0 0 C0 0.99 0 1.98 0 3 C-3.63 3 -7.26 3 -11 3 C-6.577168 -0.317124 -5.28089024 -0.30466674 0 0 Z " fill="#446581" transform="translate(219,172)"/>
<path d="M0 0 C1.98 0.495 1.98 0.495 4 1 C3.67 2.32 3.34 3.64 3 5 C1.68 4.67 0.36 4.34 -1 4 C-0.67 2.68 -0.34 1.36 0 0 Z " fill="#6C8F9D" transform="translate(157,218)"/>
<path d="M0 0 C2.475 0.495 2.475 0.495 5 1 C5 1.99 5 2.98 5 4 C3.68 4.33 2.36 4.66 1 5 C0.67 3.35 0.34 1.7 0 0 Z " fill="#64849A" transform="translate(196,203)"/>
<path d="M0 0 C2.31 0.66 4.62 1.32 7 2 C6.67 2.99 6.34 3.98 6 5 C3.83125748 4.49396008 2.00032373 4.00016187 0 3 C0 2.01 0 1.02 0 0 Z " fill="#486A86" transform="translate(200,143)"/>
<path d="M0 0 C2.475 0.495 2.475 0.495 5 1 C5 1.99 5 2.98 5 4 C4.01 4.33 3.02 4.66 2 5 C1.34 4.67 0.68 4.34 0 4 C0 2.68 0 1.36 0 0 Z " fill="#6A7E94" transform="translate(186,199)"/>
<path d="M0 0 C0 1.32 0 2.64 0 4 C-1.98 4 -3.96 4 -6 4 C-6 3.01 -6 2.02 -6 1 C-3.92446352 0.4465236 -2.15634036 0 0 0 Z " fill="#547386" transform="translate(206,177)"/>
<path d="M0 0 C0.99 0 1.98 0 3 0 C3.33 1.32 3.66 2.64 4 4 C2.68 4.33 1.36 4.66 0 5 C-0.5625 3.0625 -0.5625 3.0625 -1 1 C-0.67 0.67 -0.34 0.34 0 0 Z " fill="#668A9E" transform="translate(180,171)"/>
<path d="M0 0 C1.65 0.33 3.3 0.66 5 1 C5 2.32 5 3.64 5 5 C2.69 4.67 0.38 4.34 -2 4 C-1.01 3.34 -0.02 2.68 1 2 C0.67 1.34 0.34 0.68 0 0 Z " fill="#6E8DA5" transform="translate(217,164)"/>
<path d="M0 0 C6.75 1.75 6.75 1.75 9 4 C8.38125 3.79375 7.7625 3.5875 7.125 3.375 C6.42375 3.25125 5.7225 3.1275 5 3 C4.34 3.66 3.68 4.32 3 5 C3 4.34 3 3.68 3 3 C2.01 3 1.02 3 0 3 C0 2.01 0 1.02 0 0 Z " fill="#BCBDC0" transform="translate(251,183)"/>
<path d="M0 0 C-4.75 4 -4.75 4 -7 4 C-7.33 3.01 -7.66 2.02 -8 1 C-5.29120665 -0.35439668 -2.99066732 -0.06501451 0 0 Z " fill="#BBBBBC" transform="translate(238,243)"/>
<path d="M0 0 C-0.33 0.66 -0.66 1.32 -1 2 C-3.97 2 -6.94 2 -10 2 C-6.16991045 -0.55339303 -4.41711378 -1.47237126 0 0 Z " fill="#255175" transform="translate(200,186)"/>
<path d="M0 0 C1.32 0.33 2.64 0.66 4 1 C3.67 2.32 3.34 3.64 3 5 C2.01 5 1.02 5 0 5 C0 3.35 0 1.7 0 0 Z " fill="#648794" transform="translate(164,148)"/>
<path d="M0 0 C0.99 0.33 1.98 0.66 3 1 C3 2.32 3 3.64 3 5 C1.68 5 0.36 5 -1 5 C-0.67 3.35 -0.34 1.7 0 0 Z " fill="#6E899F" transform="translate(212,130)"/>
<path d="M0 0 C2.125 0.9375 2.125 0.9375 4 2 C2.68 3.32 1.36 4.64 0 6 C0 4.68 0 3.36 0 2 C-0.66 1.67 -1.32 1.34 -2 1 C-1.34 0.67 -0.68 0.34 0 0 Z " fill="#879EB9" transform="translate(190,208)"/>
<path d="" fill="#FFFFFF" transform="translate(0,0)"/>
<path d="" fill="#FFFFFF" transform="translate(0,0)"/>
<path d="" fill="#FFFFFF" transform="translate(0,0)"/>
<path d="" fill="#FFFFFF" transform="translate(0,0)"/>
<path d="" fill="#FFFFFF" transform="translate(0,0)"/>
<path d="" fill="#FFFFFF" transform="translate(0,0)"/>
<path d="" fill="#FFFFFF" transform="translate(0,0)"/>
<path d="" fill="#FFFFFF" transform="translate(0,0)"/>
<path d="" fill="#FFFFFF" transform="translate(0,0)"/>
<path d="" fill="#FFFFFF" transform="translate(0,0)"/>
<path d="" fill="#FFFFFF" transform="translate(0,0)"/>
<path d="" fill="#FFFFFF" transform="translate(0,0)"/>
<path d="" fill="#FFFFFF" transform="translate(0,0)"/>
<path d="" fill="#FFFFFF" transform="translate(0,0)"/>
<path d="" fill="#FFFFFF" transform="translate(0,0)"/>
<path d="" fill="#FFFFFF" transform="translate(0,0)"/>
<path d="" fill="#FFFFFF" transform="translate(0,0)"/>
<path d="" fill="#FFFFFF" transform="translate(0,0)"/>
<path d="" fill="#FFFFFF" transform="translate(0,0)"/>
<path d="" fill="#FFFFFF" transform="translate(0,0)"/>
<path d="" fill="#FFFFFF" transform="translate(0,0)"/>
<path d="" fill="#FFFFFF" transform="translate(0,0)"/>
<path d="" fill="#FFFFFF" transform="translate(0,0)"/>
<path d="" fill="#FFFFFF" transform="translate(0,0)"/>
<path d="" fill="#FFFFFF" transform="translate(0,0)"/>
<path d="" fill="#FFFFFF" transform="translate(0,0)"/>
<path d="" fill="#FFFFFF" transform="translate(0,0)"/>
<path d="" fill="#FFFFFF" transform="translate(0,0)"/>
<path d="" fill="#FFFFFF" transform="translate(0,0)"/>
<path d="" fill="#FFFFFF" transform="translate(0,0)"/>
<path d="" fill="#FFFFFF" transform="translate(0,0)"/>
<path d="" fill="#FFFFFF" transform="translate(0,0)"/>
<path d="" fill="#FFFFFF" transform="translate(0,0)"/>
<path d="" fill="#FFFFFF" transform="translate(0,0)"/>
<path d="" fill="#FFFFFF" transform="translate(0,0)"/>
<path d="" fill="#FFFFFF" transform="translate(0,0)"/>
<path d="" fill="#FFFFFF" transform="translate(0,0)"/>
<path d="" fill="#FFFFFF" transform="translate(0,0)"/>
<path d="" fill="#FFFFFF" transform="translate(0,0)"/>
<path d="" fill="#FFFFFF" transform="translate(0,0)"/>
<path d="" fill="#FFFFFF" transform="translate(0,0)"/>
<path d="" fill="#FFFFFF" transform="translate(0,0)"/>
<path d="" fill="#FFFFFF" transform="translate(0,0)"/>
<path d="" fill="#FFFFFF" transform="translate(0,0)"/>
<path d="" fill="#FFFFFF" transform="translate(0,0)"/>
<path d="" fill="#FFFFFF" transform="translate(0,0)"/>
<path d="" fill="#FFFFFF" transform="translate(0,0)"/>
<path d="" fill="#FFFFFF" transform="translate(0,0)"/>
<path d="" fill="#FFFFFF" transform="translate(0,0)"/>
<path d="" fill="#FFFFFF" transform="translate(0,0)"/>
<path d="" fill="#FFFFFF" transform="translate(0,0)"/>
<path d="" fill="#FFFFFF" transform="translate(0,0)"/>
<path d="" fill="#FFFFFF" transform="translate(0,0)"/>
<path d="" fill="#FFFFFF" transform="translate(0,0)"/>
<path d="" fill="#FFFFFF" transform="translate(0,0)"/>
<path d="" fill="#FFFFFF" transform="translate(0,0)"/>
<path d="" fill="#FFFFFF" transform="translate(0,0)"/>
<path d="" fill="#FFFFFF" transform="translate(0,0)"/>
<path d="" fill="#FFFFFF" transform="translate(0,0)"/>
<path d="" fill="#FFFFFF" transform="translate(0,0)"/>
<path d="" fill="#FFFFFF" transform="translate(0,0)"/>
<path d="" fill="#FFFFFF" transform="translate(0,0)"/>
<path d="" fill="#FFFFFF" transform="translate(0,0)"/>
<path d="" fill="#FFFFFF" transform="translate(0,0)"/>
<path d="" fill="#FFFFFF" transform="translate(0,0)"/>
<path d="" fill="#FFFFFF" transform="translate(0,0)"/>
<path d="" fill="#FFFFFF" transform="translate(0,0)"/>
<path d="" fill="#FFFFFF" transform="translate(0,0)"/>
<path d="" fill="#FFFFFF" transform="translate(0,0)"/>
<path d="" fill="#FFFFFF" transform="translate(0,0)"/>
<path d="" fill="#FFFFFF" transform="translate(0,0)"/>
<path d="" fill="#FFFFFF" transform="translate(0,0)"/>
<path d="" fill="#FFFFFF" transform="translate(0,0)"/>
<path d="" fill="#FFFFFF" transform="translate(0,0)"/>
<path d="" fill="#FFFFFF" transform="translate(0,0)"/>
<path d="" fill="#FFFFFF" transform="translate(0,0)"/>
<path d="" fill="#FFFFFF" transform="translate(0,0)"/>
</svg>
